<?xml version="1.0" standalone="no"?>
<!DOCTYPE svg PUBLIC "-//W3C//DTD SVG 20010904//EN"
 "http://www.w3.org/TR/2001/REC-SVG-20010904/DTD/svg10.dtd">
<svg version="1.0" xmlns="http://www.w3.org/2000/svg"
 width="1920.000000pt" height="1829.000000pt" viewBox="0 0 1920.000000 1829.000000"
 preserveAspectRatio="xMidYMid meet">

<g transform="translate(0.000000,1829.000000) scale(0.100000,-0.100000)"
fill="#000000" stroke="none">
<path d="M4805 14799 c-2698 -1960 -4799 -3493 -4798 -3501 2 -7 826 -2546
1832 -5643 l1829 -5630 5938 0 5938 0 1828 5625 c1005 3094 1828 5635 1828
5646 0 17 -973 729 -4767 3485 -2622 1905 -4781 3473 -4797 3485 l-31 21
-4800 -3488z m4945 3237 c69 -49 485 -351 925 -671 440 -320 1115 -810 1500
-1090 385 -280 988 -718 1340 -974 352 -256 953 -692 1335 -970 382 -277 916
-665 1185 -861 270 -196 1059 -769 1755 -1275 696 -505 1269 -921 1273 -925 5
-4 -48 -183 -118 -396 -121 -372 -173 -532 -318 -979 -107 -330 -195 -599
-262 -805 -35 -107 -118 -364 -185 -570 -67 -206 -152 -469 -190 -585 -38
-115 -98 -302 -135 -415 -74 -229 -165 -508 -260 -800 -35 -107 -118 -364
-185 -570 -67 -206 -152 -469 -190 -585 -38 -115 -123 -379 -190 -585 -67
-206 -146 -450 -177 -542 -30 -93 -56 -179 -59 -192 -2 -13 -32 -110 -67 -217
l-63 -194 -141 -3 -141 -3 -4 59 c-5 67 -31 112 -81 140 -29 15 -70 17 -399
17 -356 0 -367 -1 -395 -21 -50 -37 -73 -81 -73 -140 l0 -54 -219 0 -219 0 -4
65 c-3 58 -8 69 -38 100 -19 19 -50 40 -70 45 -19 5 -130 10 -247 10 l-212 0
-24 -54 c-49 -107 -72 -96 202 -96 l241 0 0 -35 c0 -23 -5 -35 -14 -35 -7 0
-25 -9 -40 -21 -48 -38 -24 -129 34 -129 16 0 20 -7 20 -35 l0 -35 -319 0
-319 0 -41 -65 -41 -66 26 -9 c14 -6 174 -10 375 -10 332 0 352 1 390 20 55
29 79 71 79 143 l0 57 220 0 220 0 0 -56 c0 -69 23 -111 79 -142 40 -23 43
-23 405 -20 350 3 366 4 392 24 50 36 67 70 72 134 l4 60 114 0 c66 0 114 -4
114 -10 0 -5 -12 -40 -26 -77 -32 -86 -57 -161 -210 -633 -69 -212 -154 -474
-190 -583 -35 -108 -93 -288 -130 -400 -36 -111 -94 -290 -129 -397 -35 -107
-118 -364 -185 -570 -67 -206 -152 -469 -190 -585 -38 -116 -73 -227 -80 -247
l-12 -38 -949 0 c-1231 -1 -8577 -1 -9807 0 l-948 0 -28 87 c-15 49 -61 189
-101 313 -147 451 -206 632 -323 995 -601 1849 -630 1937 -666 2035 -45 123
-54 110 77 110 l114 0 6 -55 c6 -63 29 -108 70 -139 28 -20 38 -21 405 -21
l377 0 33 23 c42 30 62 71 69 138 l6 54 213 0 214 0 0 -51 c0 -69 31 -123 86
-149 40 -20 57 -21 402 -18 224 2 365 7 371 13 6 6 -4 32 -27 72 l-37 62 -322
1 -323 0 0 33 c0 28 4 34 32 42 71 21 72 112 1 137 -30 11 -34 16 -31 43 l3
30 241 5 240 5 -33 73 -33 73 -234 -3 c-220 -3 -236 -4 -263 -24 -50 -37 -73
-81 -73 -140 l0 -54 -214 0 -213 0 -7 56 c-8 69 -30 108 -76 137 -34 22 -42
22 -400 22 l-365 0 -38 -23 c-46 -29 -67 -68 -74 -138 l-6 -55 -139 3 -139 3
-64 200 c-90 283 -454 1412 -531 1647 -124 383 -194 599 -379 1168 -102 316
-219 676 -260 800 -40 124 -127 392 -194 595 -357 1100 -650 2003 -706 2175
-180 554 -274 844 -272 846 1 1 175 127 387 281 464 337 1748 1270 2695 1958
380 276 1005 730 1390 1010 385 280 986 716 1335 970 976 710 1841 1338 2670
1940 415 301 806 585 869 631 63 46 119 80 125 77 6 -4 67 -47 136 -97z
m-6120 -14171 c0 -23 -5 -35 -14 -35 -29 0 -66 -41 -66 -73 0 -35 34 -77 62
-77 14 0 18 -8 18 -35 l0 -35 -320 0 -320 0 0 35 c0 26 4 35 17 35 27 0 63 41
63 72 0 31 -39 78 -65 78 -11 0 -15 10 -15 35 l0 35 320 0 320 0 0 -35z
m12598 -2 c3 -28 0 -33 -18 -33 -29 0 -70 -44 -70 -75 0 -31 41 -75 70 -75 16
0 20 -6 20 -35 l0 -35 -325 0 -325 0 0 33 c0 28 4 34 32 42 67 21 68 104 1
135 -27 12 -33 21 -33 48 l0 32 323 -2 322 -3 3 -32z"/>
<path d="M6506 4040 c-16 -5 -40 -19 -53 -32 -45 -42 -53 -70 -53 -186 l0
-110 72 -93 c39 -52 83 -109 97 -127 l26 -33 327 3 c312 3 328 4 354 24 50 36
67 70 72 134 l4 60 203 0 202 0 6 -54 c7 -67 27 -108 69 -138 l33 -23 375 0
375 0 33 23 c42 30 62 71 69 138 l6 54 202 0 203 0 4 -60 c5 -64 22 -98 72
-134 26 -20 42 -21 388 -24 346 -3 362 -2 402 18 59 29 80 63 84 137 l4 63
209 0 209 0 0 -57 c0 -72 24 -114 80 -143 39 -20 53 -21 405 -18 349 3 365 4
391 24 50 36 67 70 72 134 l4 60 203 0 202 0 6 -62 c6 -64 23 -97 71 -132 26
-20 42 -21 356 -24 l328 -3 97 126 97 125 -4 123 c-3 134 -12 156 -73 194 -28
17 -59 18 -395 18 -348 0 -367 -1 -400 -20 -44 -26 -80 -94 -80 -152 l0 -43
-205 0 -205 0 0 43 c0 65 -36 127 -90 155 -43 22 -52 22 -380 22 -189 0 -350
-4 -370 -10 -20 -5 -51 -26 -70 -45 -30 -31 -35 -42 -38 -100 l-4 -65 -209 0
-209 0 0 54 c0 59 -23 103 -73 140 -27 20 -41 21 -385 24 -355 3 -357 3 -401
-20 -62 -32 -84 -65 -89 -138 l-4 -60 -203 0 -202 0 -6 54 c-7 70 -28 109 -74
138 l-38 23 -365 0 c-358 0 -366 0 -400 -22 -46 -29 -70 -72 -77 -138 l-6 -55
-202 0 -203 0 -4 60 c-5 72 -27 106 -88 138 -43 22 -50 22 -385 21 -187 0
-353 -5 -369 -9z m692 -177 c3 -29 0 -33 -22 -33 -38 0 -55 -10 -72 -41 -27
-53 8 -109 68 -109 25 0 28 -3 28 -35 l0 -35 -325 0 -325 0 0 138 c0 76 3 142
7 145 4 4 149 6 322 5 l316 -3 3 -32z m1362 2 c0 -31 -3 -35 -25 -35 -34 0
-75 -42 -75 -76 0 -37 36 -74 72 -74 25 0 28 -3 28 -35 l0 -35 -320 0 -320 0
0 35 c0 26 4 35 17 35 29 0 63 41 63 76 0 33 -37 74 -66 74 -9 0 -14 12 -14
35 l0 35 320 0 320 0 0 -35z m1368 -2 c3 -29 0 -33 -21 -33 -13 0 -36 -9 -51
-21 -52 -41 -23 -129 44 -129 28 0 30 -3 30 -35 l0 -35 -325 0 -325 0 0 35 c0
29 4 35 20 35 12 0 32 12 47 26 20 20 24 31 19 57 -7 36 -38 67 -67 67 -14 0
-19 7 -19 28 0 16 3 32 7 35 4 4 149 6 322 5 l316 -3 3 -32z m1370 0 c3 -31 1
-33 -28 -33 -38 0 -80 -39 -80 -75 0 -36 42 -75 80 -75 28 0 30 -3 30 -35 l0
-35 -325 0 -325 0 0 35 c0 28 4 35 20 35 58 0 82 91 34 129 -15 12 -33 21 -40
21 -9 0 -14 12 -14 35 l0 35 323 -2 322 -3 3 -32z m1362 -108 l0 -145 -325 0
-325 0 0 35 c0 30 3 35 24 35 30 0 66 43 66 77 0 29 -42 73 -70 73 -15 0 -20
6 -20 28 0 16 3 32 7 35 3 4 150 7 325 7 l318 0 0 -145z"/>
<path d="M5713 3511 l-212 -217 82 -81 c45 -45 100 -93 121 -107 119 -80 297
32 266 168 -7 34 -7 35 19 30 36 -7 111 33 138 75 28 41 31 115 7 151 -25 38
-187 200 -199 199 -5 0 -105 -98 -222 -218z m294 55 c33 -35 63 -76 67 -90 14
-57 -54 -124 -113 -111 -15 3 -56 35 -91 70 l-64 65 64 65 c35 36 67 65 71 65
4 0 34 -29 66 -64z m-107 -282 c29 -85 -84 -168 -160 -118 -14 9 -51 42 -83
73 l-57 55 77 78 78 78 67 -67 c37 -37 73 -81 78 -99z"/>
<path d="M13168 3684 l-26 -26 85 -177 c47 -97 110 -227 139 -289 l54 -113 25
18 c13 10 25 24 25 31 0 7 -18 48 -40 91 l-39 80 75 70 c42 39 81 71 86 71 6
0 44 -18 85 -41 l74 -41 25 23 c13 12 24 26 24 29 0 8 -542 300 -556 300 -5 0
-21 -12 -36 -26z m194 -135 c59 -33 108 -64 108 -68 0 -10 -109 -116 -114
-110 -6 6 -116 228 -116 234 0 11 17 3 122 -56z"/>
<path d="M12917 3442 l-27 -28 45 -154 c25 -84 43 -155 41 -158 -3 -2 -74 19
-158 47 l-153 51 -29 -30 c-23 -22 -26 -30 -15 -34 8 -3 97 -30 199 -61 l185
-56 90 -90 91 -90 24 26 24 26 -87 87 -86 87 -52 190 c-28 105 -54 196 -58
203 -5 9 -15 4 -34 -16z"/>
<path d="M6142 3093 l-284 -146 26 -26 27 -26 81 44 80 43 79 -78 78 -78 -44
-81 -45 -82 29 -27 29 -27 147 286 147 287 -28 29 c-15 16 -30 29 -33 28 -3 0
-134 -66 -289 -146z m186 -72 l-63 -119 -55 51 c-30 27 -55 55 -55 61 0 10
208 125 228 126 4 0 -20 -53 -55 -119z"/>
<path d="M6492 2756 c-117 -119 -212 -219 -212 -223 0 -5 54 -62 120 -128
l119 -119 26 24 26 24 -98 98 -98 98 188 188 c103 103 187 192 187 198 0 6
-11 20 -23 32 l-24 22 -211 -214z"/>
<path d="M12387 2932 l-27 -28 142 -292 142 -292 27 26 28 26 -42 84 -42 84
77 77 76 76 83 -47 83 -47 28 28 28 29 -284 152 c-156 84 -286 152 -288 152
-2 0 -16 -13 -31 -28z m251 -170 l64 -35 -58 -58 c-32 -33 -61 -59 -64 -59 -4
0 -102 200 -119 243 -2 6 23 -4 55 -23 32 -18 87 -49 122 -68z"/>
<path d="M9318 2908 c-11 -10 -24 -81 -48 -258 -18 -135 -36 -238 -39 -230 -2
8 -37 119 -76 245 -71 228 -72 230 -101 233 -16 1 -34 -1 -41 -6 -7 -4 -31
-116 -55 -250 -24 -133 -46 -242 -50 -242 -5 0 -8 5 -8 12 0 6 -28 114 -62
240 l-61 228 -33 0 c-18 0 -35 -3 -37 -7 -3 -5 34 -141 83 -303 l87 -295 39 0
39 0 45 247 c25 135 47 249 50 252 3 2 39 -104 80 -237 l76 -242 39 0 39 0 51
313 51 312 -26 0 c-14 0 -33 -6 -42 -12z"/>
<path d="M9670 2833 c0 -43 -3 -183 -7 -310 l-6 -233 35 0 35 0 6 137 c4 75 7
214 7 310 l0 173 -35 0 -35 0 0 -77z"/>
<path d="M10046 2658 c-10 -133 -20 -273 -23 -310 l-6 -68 36 0 35 0 6 73 c4
39 9 98 12 129 l6 57 116 -5 c106 -5 120 -4 149 15 46 29 75 92 76 162 0 66
-22 113 -71 145 -31 21 -41 23 -242 40 l-76 6 -18 -244z m285 142 c38 -18 53
-51 46 -107 -9 -85 -62 -107 -211 -87 -45 7 -46 7 -46 43 0 20 3 67 7 105 l6
69 86 -6 c47 -2 98 -10 112 -17z"/>
<path d="M8112 2775 c-68 -13 -125 -25 -127 -27 -1 -2 107 -577 115 -604 1 -4
240 48 262 57 38 15 93 78 109 125 22 62 17 197 -10 276 -26 79 -94 161 -144
176 -64 20 -84 20 -205 -3z m199 -77 c71 -47 121 -213 97 -322 -19 -89 -61
-117 -215 -142 l-38 -6 -44 231 c-24 128 -42 233 -40 235 9 8 108 24 155 25
38 1 60 -5 85 -21z"/>
<path d="M10784 2543 c-75 -142 -143 -269 -151 -281 -17 -28 -17 -28 24 -36
31 -7 32 -6 77 77 l46 84 100 -17 c55 -9 104 -20 108 -24 4 -4 12 -46 17 -94
l10 -86 34 -8 c18 -5 35 -7 38 -4 3 2 -14 146 -38 320 -40 291 -44 315 -63
320 -60 16 -57 20 -202 -251z m180 18 c9 -69 14 -127 12 -129 -8 -7 -156 21
-156 29 0 16 124 243 127 233 1 -5 9 -65 17 -133z"/>
<path d="M12111 2666 l-24 -25 177 -185 c161 -169 176 -188 176 -221 0 -25 -8
-43 -25 -60 -35 -36 -76 -33 -123 10 l-39 35 -24 -26 -24 -26 40 -35 c73 -64
137 -71 202 -24 56 40 81 105 64 163 -13 41 -133 178 -303 346 l-74 73 -23
-25z"/>
<path d="M6820 2415 l-214 -214 24 -26 24 -26 218 218 217 217 -21 23 c-12 13
-24 23 -27 23 -4 0 -103 -97 -221 -215z"/>
<path d="M8790 2036 c0 -2 11 -28 24 -59 37 -83 45 -144 28 -208 -18 -71 -10
-219 18 -319 35 -122 103 -253 164 -313 104 -104 247 -177 349 -177 l41 0 -31
33 c-85 91 -128 183 -149 327 -27 185 -136 469 -214 563 -41 48 -230 175 -230
153z"/>
<path d="M10360 2008 c-105 -59 -168 -115 -209 -186 -75 -126 -151 -349 -175
-517 -17 -115 -60 -213 -126 -287 -22 -25 -40 -49 -40 -52 0 -13 84 -5 137 14
126 44 260 153 321 261 76 135 131 371 109 475 -6 27 -10 81 -11 119 0 59 5
81 31 138 18 37 29 67 25 67 -4 0 -32 -14 -62 -32z"/>
<path d="M9247 1945 c4 -59 1 -81 -21 -141 l-26 -71 20 -41 c11 -22 30 -77 43
-121 13 -44 26 -83 29 -86 2 -3 30 48 61 114 52 109 56 124 51 168 -8 60 -37
111 -108 188 l-55 60 6 -70z"/>
<path d="M9918 1953 c-131 -135 -139 -183 -56 -360 29 -62 55 -113 58 -113 3
0 13 29 22 65 10 36 29 94 43 129 l25 63 -25 73 c-27 79 -30 116 -16 168 5 17
9 32 7 32 -1 0 -27 -26 -58 -57z"/>
<path d="M8490 1909 c0 -24 -11 -70 -24 -102 l-24 -57 68 -53 c67 -51 70 -56
126 -177 67 -147 122 -236 191 -307 48 -50 172 -138 180 -129 3 2 -15 29 -40
59 -131 161 -175 260 -197 440 l-11 89 -93 91 c-51 51 -112 114 -134 141 l-42
49 0 -44z"/>
<path d="M9552 1878 c-67 -118 -147 -296 -182 -403 -28 -84 -33 -116 -34 -200
-1 -88 2 -107 25 -155 32 -67 99 -138 170 -179 66 -38 76 -38 141 -5 65 33
147 115 178 179 22 44 25 63 24 160 0 92 -5 124 -28 195 -57 173 -210 480
-240 480 -7 0 -31 -33 -54 -72z"/>
<path d="M10584 1802 l-132 -135 -6 -61 c-23 -201 -69 -302 -240 -515 -30 -39
107 52 165 109 84 82 133 158 200 311 45 101 61 127 98 158 24 20 58 47 74 62
l29 25 -21 42 c-12 23 -24 63 -29 90 l-7 49 -131 -135z"/>
<path d="M7896 1713 c-25 -4 -17 -9 65 -43 135 -55 186 -86 260 -159 58 -58
69 -76 92 -144 37 -110 88 -197 162 -276 116 -123 199 -148 390 -117 54 9 101
18 102 20 2 2 -16 15 -41 30 -55 32 -146 123 -195 196 -21 30 -70 121 -109
201 -93 194 -142 236 -313 274 -73 16 -352 29 -413 18z"/>
<path d="M10965 1706 c-155 -24 -250 -71 -303 -148 -16 -23 -61 -108 -100
-188 -50 -104 -87 -165 -130 -216 -58 -68 -133 -131 -177 -149 -28 -11 72 -33
192 -41 90 -7 94 -6 155 24 113 56 226 190 282 337 50 130 59 146 117 199 59
55 193 130 289 162 53 18 54 18 25 25 -50 11 -265 8 -350 -5z"/>
<path d="M7960 1495 c99 -74 103 -79 205 -234 115 -176 128 -192 200 -228 43
-22 149 -63 163 -63 3 0 -21 18 -53 41 -32 22 -66 50 -76 62 -31 37 -85 147
-119 242 -38 105 -55 127 -131 166 -54 27 -246 89 -276 89 -8 0 31 -34 87 -75z"/>
<path d="M11245 1546 c-108 -32 -186 -62 -227 -89 -38 -26 -52 -51 -107 -194
-54 -138 -97 -204 -166 -249 -30 -20 -54 -39 -51 -41 7 -7 141 50 192 83 43
27 65 53 139 170 121 190 126 196 224 266 129 92 129 92 -4 54z"/>
<path d="M8462 900 c-68 -14 -147 -74 -298 -225 -143 -143 -289 -304 -281
-311 2 -2 62 12 133 32 207 59 238 64 400 64 182 0 231 12 379 96 80 45 324
201 345 221 16 15 -137 64 -305 98 -136 28 -307 39 -373 25z"/>
<path d="M10480 894 c-108 -16 -316 -67 -375 -93 l-40 -17 80 -56 c116 -82
322 -204 396 -235 60 -25 78 -27 264 -33 179 -6 210 -10 290 -35 128 -39 229
-65 234 -60 13 14 -399 438 -477 489 -83 56 -186 67 -372 40z"/>
<path d="M9405 735 c-30 -29 -32 -63 -6 -136 35 -104 185 -369 207 -369 15 0
108 155 170 283 60 125 69 190 30 226 -22 21 -32 23 -86 19 -34 -2 -65 -10
-69 -17 -4 -6 -16 -49 -25 -94 -20 -92 -27 -89 -47 21 -14 83 -24 92 -105 92
-34 0 -51 -6 -69 -25z"/>
<path d="M9185 709 c-27 -21 -94 -66 -147 -100 l-97 -60 34 -30 c32 -28 56
-77 70 -143 l6 -29 47 46 c48 47 97 70 209 96 l51 13 -24 35 c-26 38 -30 83
-15 160 7 37 6 42 -13 47 -43 12 -72 3 -121 -35z"/>
<path d="M9903 744 c-9 -4 -10 -29 -6 -89 5 -73 3 -87 -15 -117 l-22 -35 83
-23 c102 -28 123 -38 172 -89 39 -40 55 -44 55 -13 0 46 25 99 62 133 l40 36
-92 58 c-50 32 -118 77 -151 101 -55 41 -91 52 -126 38z"/>
</g>
</svg>
